<svg width="25" height="24" viewBox="0 0 25 24" fill="none" xmlns="http://www.w3.org/2000/svg">
<path d="M14.7098 6.38702L14.793 6.29282C15.1535 5.93237 15.7207 5.9047 16.113 6.20977L16.2072 6.29297L21.2038 11.2906C21.564 11.6509 21.5919 12.2178 21.2873 12.6101L21.2042 12.7043L16.2076 17.7077C15.8173 18.0985 15.1842 18.0989 14.7934 17.7087C14.4327 17.3484 14.4045 16.7812 14.7093 16.3887L14.7924 16.2945L18.081 13H4.5C3.98716 13 3.56449 12.614 3.50673 12.1166L3.5 12C3.5 11.4872 3.88604 11.0645 4.38338 11.0067L4.5 11H18.084L14.7928 7.70703C14.4324 7.34651 14.4047 6.77928 14.7098 6.38702L14.793 6.29282L14.7098 6.38702Z" fill="white"/>
</svg>
