<svg width="97" height="60" viewBox="0 0 97 60" fill="none" xmlns="http://www.w3.org/2000/svg">
<path d="M62.9084 24.5057C66.0994 22.2366 69.8439 21.1021 74.142 21.1021C78.5052 21.1021 81.9893 21.6856 84.5942 22.8525C87.2642 23.9546 89.5109 25.4133 91.3343 27.2285C95.1114 31.1183 97 35.5592 97 40.5511C97 45.9319 95.0138 50.5024 91.0413 54.2626C86.9386 58.0875 81.7939 60 75.6073 60C68.1833 60 62.3223 57.7634 58.0242 53.2901C53.7912 49.0113 51.6747 43.436 51.6747 36.564C51.6747 26.1264 55.0937 16.8558 61.9315 8.75203C65.4481 4.47326 68.1833 1.94489 70.137 1.16694C72.1558 0.388979 73.7187 0 74.8258 0C77.8865 0 79.4169 1.42626 79.4169 4.27877C79.4169 5.31605 79.0588 5.99676 78.3424 6.32091L74.7281 7.87682C71.4069 9.36791 68.2484 12.2853 65.2528 16.6288C63.9503 18.6386 63.1688 21.2642 62.9084 24.5057ZM11.2336 24.5057C14.4246 22.2366 18.1692 21.1021 22.4673 21.1021C26.8305 21.1021 30.3145 21.6856 32.9194 22.8525C35.5895 23.9546 37.8362 25.4133 39.6596 27.2285C43.4367 31.1183 45.3253 35.5592 45.3253 40.5511C45.3253 45.9319 43.339 50.5024 39.3666 54.2626C35.2638 58.0875 30.1192 60 23.9325 60C16.5086 60 10.615 57.7634 6.25176 53.2901C2.08392 49.0113 0 43.436 0 36.564C0 26.1264 3.38637 16.8558 10.1591 8.75203C13.7409 4.47326 16.5086 1.94489 18.4622 1.16694C20.481 0.388979 22.044 0 23.1511 0C26.2118 0 27.7422 1.42626 27.7422 4.27877C27.7422 5.31605 27.3515 5.99676 26.57 6.32091L23.0534 7.87682C19.7321 9.36791 16.5737 12.2853 13.578 16.6288C12.2756 18.6386 11.4941 21.2642 11.2336 24.5057Z" fill="black" fill-opacity="0.08"/>
</svg>
