<svg width="30" height="30" viewBox="0 0 30 30" fill="none" xmlns="http://www.w3.org/2000/svg">
<path d="M15.3562 10.5826C13.2627 7.91698 11.512 6.90118 9.41669 6.90118C5.14498 6.90118 1.87207 12.4603 1.87207 18.3444C1.87207 22.0265 3.65339 24.3488 6.6371 24.3488C8.78456 24.3488 10.329 23.3365 13.0746 18.537C13.0746 18.537 14.2191 16.5159 15.0066 15.1236C15.2824 15.569 15.5724 16.0483 15.8782 16.5635L17.1659 18.7295C19.6738 22.9265 21.0713 24.3488 23.6033 24.3488C26.5101 24.3488 28.1277 21.9948 28.1277 18.2362C28.1277 12.0753 24.7811 6.90118 20.7154 6.90118C18.5626 6.90118 16.8797 8.52277 15.3562 10.5826ZM19.3824 16.7982L17.843 14.2308C17.4265 13.5533 17.0273 12.9306 16.6421 12.3598C18.0294 10.2183 19.1739 9.1514 20.535 9.1514C23.3627 9.1514 25.625 13.3148 25.625 18.4287C25.625 20.3779 24.9864 21.509 23.6635 21.509C22.3956 21.509 21.7898 20.6717 19.3824 16.7982ZM4.71176 18.3925C4.71176 14.1208 6.84159 9.753 9.38057 9.753C10.7554 9.753 11.9044 10.547 13.6643 13.0665C11.9932 15.6297 10.9809 17.2373 10.9809 17.2373C8.7549 20.7269 7.98476 21.509 6.74545 21.509C5.46986 21.509 4.71176 20.3892 4.71176 18.3925Z" fill="white"/>
</svg>
