<svg width="30" height="30" viewBox="0 0 30 30" fill="none" xmlns="http://www.w3.org/2000/svg">
<path fill-rule="evenodd" clip-rule="evenodd" d="M5.88333 4.37503C5.0503 4.37503 4.375 5.05033 4.375 5.88336V24.1166C4.375 24.9497 5.0503 25.625 5.88333 25.625H24.1167C24.9497 25.625 25.625 24.9497 25.625 24.1166V5.88336C25.625 5.05033 24.9497 4.37503 24.1167 4.37503H5.88333ZM9.14465 10.9742C10.1627 10.9742 10.9881 10.1489 10.9881 9.13079C10.9881 8.11269 10.1627 7.28736 9.14465 7.28736C8.12655 7.28736 7.30122 8.11269 7.30122 9.13079C7.30122 10.1489 8.12655 10.9742 9.14465 10.9742ZM12.6764 12.3366H15.7315V13.7362C15.7315 13.7362 16.5606 12.078 18.8163 12.078C20.8286 12.078 22.4955 13.0693 22.4955 16.0908V22.4622H19.3295V16.8628C19.3295 15.0805 18.3779 14.8844 17.6528 14.8844C16.1479 14.8844 15.8903 16.1824 15.8903 17.0953V22.4622H12.6764V12.3366ZM10.7516 12.3366H7.53768V22.4622H10.7516V12.3366Z" fill="white"/>
</svg>
