<svg xmlns="http://www.w3.org/2000/svg" viewBox="0 0 248 101.17"><defs><style>.cls-1{fill:#253c4f;}</style></defs><title>Asset 2</title><g id="Layer_2" data-name="Layer 2"><g id="Layer_1-2" data-name="Layer 1"><path class="cls-1" d="M20.5,68.5a5.58,5.58,0,0,0-2-1.81,6,6,0,0,0-3-.67,6.45,6.45,0,0,0-1.33.14,5.31,5.31,0,0,0-1.29.47,7.27,7.27,0,0,0-1.33.86,13,13,0,0,0-1.45,1.33V55.47a.41.41,0,0,0-.05-.19.42.42,0,0,0-.17-.15A1,1,0,0,0,9.63,55a3.74,3.74,0,0,0-.52,0,3.43,3.43,0,0,0-.5,0,1.1,1.1,0,0,0-.33.09.36.36,0,0,0-.17.15.41.41,0,0,0,0,.19V82.59a.46.46,0,0,0,0,.21.28.28,0,0,0,.16.14,1.08,1.08,0,0,0,.3.08,2.81,2.81,0,0,0,.45,0,2.68,2.68,0,0,0,.44,0,1.19,1.19,0,0,0,.3-.08.3.3,0,0,0,.17-.14.37.37,0,0,0,.06-.21V80.53c.48.48.93.89,1.34,1.23a9.06,9.06,0,0,0,1.22.85,4.9,4.9,0,0,0,1.23.48,5.78,5.78,0,0,0,1.36.15,6.67,6.67,0,0,0,2.93-.61,5.91,5.91,0,0,0,2.15-1.76,8.09,8.09,0,0,0,1.31-2.77,15.25,15.25,0,0,0,.08-6.93A7.84,7.84,0,0,0,20.5,68.5m-1,8.67a7.14,7.14,0,0,1-.79,2.15,4.54,4.54,0,0,1-1.41,1.54,3.6,3.6,0,0,1-2.07.59,4.42,4.42,0,0,1-2.55-.86,13.3,13.3,0,0,1-2.54-2.45V71.21a15.84,15.84,0,0,1,1.44-1.59,8.36,8.36,0,0,1,1.31-1.05A4.76,4.76,0,0,1,14.15,68a4.24,4.24,0,0,1,1.22-.18,3.62,3.62,0,0,1,2.11.59A4.39,4.39,0,0,1,18.84,70a7.24,7.24,0,0,1,.72,2.22,15.49,15.49,0,0,1,.21,2.58,12.17,12.17,0,0,1-.25,2.41"/><path class="cls-1" d="M38.41,66.25a2.92,2.92,0,0,0-.56,0,5.21,5.21,0,0,0-.6,0,1.23,1.23,0,0,0-.39.1.58.58,0,0,0-.24.33l-4.89,13.9h-.07l-5-13.9a1,1,0,0,0-.11-.21.38.38,0,0,0-.2-.14,1.38,1.38,0,0,0-.36-.08,4.82,4.82,0,0,0-.61,0,4.47,4.47,0,0,0-.59,0,.66.66,0,0,0-.32.11.33.33,0,0,0-.1.24,1.28,1.28,0,0,0,.09.4l5.79,15.53a.71.71,0,0,0,.14.25.53.53,0,0,0,.25.17l-2.25,5.65a.76.76,0,0,0-.08.36.42.42,0,0,0,.14.25.63.63,0,0,0,.32.13,3.89,3.89,0,0,0,.53,0,2.25,2.25,0,0,0,.9-.13.8.8,0,0,0,.37-.32l2.21-6,6-16a1.13,1.13,0,0,0,.09-.38.3.3,0,0,0-.11-.24.63.63,0,0,0-.32-.12"/><path class="cls-1" d="M94.82,52.38c-2.17.08-4.77,1.28-7.95,3.81-1.39,1.19-4,3.62-7.77,7.26-1.76,1.69-2.26.45-1.79-.4h0c1.19-2.18,1.79-3.7,1.79-4.53a2.41,2.41,0,0,0-.76-1.85A2.62,2.62,0,0,0,76.44,56a10.36,10.36,0,0,0-5.13,1.76A68.39,68.39,0,0,0,64,63.41h0c-1,.85-1.54,0-1.05-.79s.77-1.39,1.06-2c2.11-4,1.74-6.62,1-8.25a4.21,4.21,0,0,0-.7-1.12l0,0h0a6.29,6.29,0,0,0-.71-.65,7.51,7.51,0,0,0-4.74-1.48,14.2,14.2,0,0,0-7.42,2.08A23.07,23.07,0,0,0,46,55.55l-3.57,4.17.44.28c1-1,1.89-2,2.81-3a27.74,27.74,0,0,1,4.9-4c.34-.2.68-.38,1-.55,1.73-.74,7-2.53,9.68.4.83,1.1,2.73,3.5-.31,9.43-.07.14-.14.28-.22.42l0,0c-.37.69-.79,1.42-1.25,2.18a92.93,92.93,0,0,1-7.3,10.31c-1.16,1.41-2.33,2.73-3.45,4.09S47.06,81.55,47.06,82c.09.23.09.32.17.32.52-.09,2.6-2.29,6.3-6.71A96,96,0,0,1,65.24,63.78c1.7-1.44,3.22-2.61,4.55-3.54a14.15,14.15,0,0,1,4.3-2.05c1.5-.09,2.88.56,2.21,2.65a48.07,48.07,0,0,1-3.71,6.71c-.4.68-2.25,3-5.62,7.26-3,3.82-4.53,5.86-4.53,6.18a1.51,1.51,0,0,0,0,.48v.32c.07.09.24.09.4.09.36-.09,1.72-1.53,4.13-4.38,2.73-3.29,4.29-5.06,4.53-5.29C75.74,68.08,79.91,64,84.14,59.9A38,38,0,0,1,89,56.2l.47-.25.06,0c1.45-.73,3-1.23,4-.94s1.25,1.62,1.06,2.86q-.23,1.06-.66,2.43h0c-.2.62-.43,1.3-.69,2-.76,2-1.49,3.88-2.18,5.75h0v0c-.27.71-.53,1.43-.78,2.14-.12.33-.22.66-.33,1-.63,1.74-1.27,3.49-1.71,5.06-.89,2.93-1.29,5.16,0,5.92s3.53-.7,3.37-2.06c-.07-.6-.3-1.36-.47-2.23a14.8,14.8,0,0,1,.3-4c.52-2.17,1.34-4.94,2.48-8.33C96,59.24,97,55.79,97,55.23c0-1.89-.76-2.85-2.21-2.85"/><path class="cls-1" d="M99.8,79.35c-1.21,0-1.77.48-1.77,1.4s.6,1.41,1.73,1.41,1.88-.49,1.88-1.41a1.16,1.16,0,0,0-.56-1,2.07,2.07,0,0,0-1.28-.44"/><path class="cls-1" d="M140.26,72.66c-1.23-.75-1-1.22.41-2h0q4.41-2.45,8.66-5.22h0c6.29-3.5,17.86-13.67,18.52-14.41s-.12-1.35-.87-1.83a2,2,0,0,0-3.18.55,40.38,40.38,0,0,1-4.18,4.9c-2.38,2.25-5.08,4.69-6.37,5.73-1.11.85-2.26,1.72-3.47,2.6a111.48,111.48,0,0,1-10.23,6.77c-1.76,1-2.83.8-3.55.4-1.23-.7-2.24-1.26-3-1.69h0c-.9-.5-.62-1.13,0-1.9,4.08-5.08,7.11-8.94,9.26-11.6l-.44-.93L132,66a2.24,2.24,0,0,1-2.54,1l-.53-.17h0c-1.92-.62-3.3-1-4.13-1.2a16.82,16.82,0,0,0-4.5-.6,15.79,15.79,0,0,0-8.06,1.89c-2.17,1.28-3.25,2.8-3.25,4.65a5.05,5.05,0,0,0,1.88,4c1.57,1.33,3.73,1.89,6.59,1.89a33.06,33.06,0,0,0,3.72-.25c.87-.1,2.13.21,1.23,1.26a76,76,0,0,1-6.08,6.37A55.65,55.65,0,0,1,112,88.5c-1,.8-1.45,1.24-1.45,1.4a.82.82,0,0,0,.12.52,75.49,75.49,0,0,0,7.51-6.22c1.24-1.18,3.06-3.18,5.51-6a10.59,10.59,0,0,1,4.47-2.38,38.27,38.27,0,0,0,5.76-2.06h0a4,4,0,0,1,4,0h0c.87.56,1.89,1.17,3,1.83h0l7.37,4.44,7,4.55,3.37-1.23,1-.32q-13-6.57-19.33-10.42m-16.67,2.68-2.57.22c-6.68.34-9.21-1.74-10.13-3.31a3,3,0,0,1-.29-2.4,4.54,4.54,0,0,1,2-2.1A10.06,10.06,0,0,1,118,66.34a27.23,27.23,0,0,1,10.2,2.26c.66.28,1.28.89.62,1.73l-2.55,3.28a5.66,5.66,0,0,1-2.66,1.73m10.15-2.74a63.26,63.26,0,0,1-6,2c-.61-.07-.45-.78-.09-1.24.77-1,1.46-1.85,2.08-2.66a1.76,1.76,0,0,1,2.33-.35l1.52.87c1.11.63.83,1.16.18,1.4"/><path class="cls-1" d="M223.68,75.73c-.36,0-1.6,1-3.81,2.77s-3.94,2.77-5,2.77c-1.4,0-2.12-.44-2.12-1.32a5.7,5.7,0,0,1,1.44-3.17c1-1.12,1.4-1.69,1.4-1.57,0-.28-.24-.44-.72-.4a3.79,3.79,0,0,0-1.11.91q-3.33,2.5-3.86,2.82c-2.37,1.61-4.06,2.41-5.1,2.41-1.4,0-2-.56-2-1.48A4.69,4.69,0,0,1,204,76.74a18.9,18.9,0,0,0,1.24-1.49c-.08-.32-.16-.52-.32-.52-1.29,0-3.92,1.31-7.94,4h0c-.94.62-.89.11-.12-.86a8,8,0,0,0,1.29-2,1,1,0,0,0-.66-.93h0a1.43,1.43,0,0,0-1.33.07l-.11,0c-2.85,2.17-4.49,3.37-4.89,3.61C188.77,80.15,187.08,81,186,81c-1.41,0-2-.56-2-1.48a4.63,4.63,0,0,1,1.21-2.73,18.9,18.9,0,0,0,1.24-1.49c-.08-.32-.16-.52-.32-.52-1.23,0-3.67,1.18-7.35,3.57-1.16.65-1.4.38-.91-.24l.19-.24a8,8,0,0,0,1.29-2A1,1,0,0,0,179,75h0a1.7,1.7,0,0,0-1.62-.1l-.07,0-.18.13-.38.29c-2.71,2-4.29,3.18-4.78,3.51-2.77,1.81-4.77,2.69-6.22,2.69a2.68,2.68,0,0,1-1.48-.44,2,2,0,0,1-.62-.67c-.33-.65.18-1.08.77-1.44l.42-.25h0l.49-.31h0l.06,0,.29-.19c1-.65,2.62-1.67,2.94-2.66h0a1.47,1.47,0,0,0,.17-.69,1.24,1.24,0,0,0-.44-.8,1.28,1.28,0,0,0-.92-.4c-1.08,0-2.25.8-3.7,2.29s-2,2.92-2,4.13c0,1.93,1,2.85,2.81,2.85a13.75,13.75,0,0,0,7.26-2.77c.44-.3,1-.71,1.7-1.24h0l.06-.05a12.8,12.8,0,0,1,1.89-1.26c.26-.07.47-.07.44.16a.43.43,0,0,0,0,0,1.71,1.71,0,0,1-.24.47l-.87,1.27a7.36,7.36,0,0,0-1.48,2.69c0,.08.08.19.24.28a1.34,1.34,0,0,0,.32.16,15.26,15.26,0,0,0,2.57-1.57c1.62-1.09,3.22-2,4.75-2.95.69-.39,1.4-.45,1.3.56h0a7.06,7.06,0,0,0-.11,1.18c0,1.64.76,2.41,2.28,2.41,1.81,0,3.9-.85,6.3-2.49.67-.43,1.63-1.16,2.91-2.18.65-.52,1.3-.44.33,1l-.63.93A7.36,7.36,0,0,0,192,82.2c0,.08.08.19.24.28a1.34,1.34,0,0,0,.32.16,15.26,15.26,0,0,0,2.57-1.57c1.69-1.13,3.35-2.13,4.94-3.06,1-.57,1.21-.15,1.11.67h0a7.06,7.06,0,0,0-.11,1.18c0,1.64.76,2.41,2.29,2.41,1.8,0,3.89-.85,6.3-2.49.3-.2.66-.46,1.09-.77.71-.54,1.16-.59,1,.23h0a4.93,4.93,0,0,0-.23,1.41c0,1.32.6,2,1.89,2a6.68,6.68,0,0,0,2.69-.74h0c.49-.24,1.24,0,.49.87h0L205.3,95.2c-1.52,1.65-2.25,3.09-2.25,4.33a12.21,12.21,0,0,0,.21,1.49,2.23,2.23,0,0,0,2.63-.79c.57-.54-.52-1.94,0-3.19a15.87,15.87,0,0,1,2.33-3.7c2.11-2.6,4.38-5.22,6.87-7.81,1.13-1.17,3.21-3.33,6.43-6.51,1.72-1.76,2.6-2.76,2.6-3s-.2-.24-.44-.24m-59.87,1.51a5.19,5.19,0,0,1,.84-1.07,7.34,7.34,0,0,1,.77-.74c1.21-.87,1.45.22,1.12.75a8.63,8.63,0,0,1-2.29,1.8l-.17.07c-.73.27-.43-.46-.27-.81"/><path class="cls-1" d="M247.84,74.85a.78.78,0,0,0-.28,0,57.81,57.81,0,0,1-5.42,3.81,16.69,16.69,0,0,1-5.26,2.42l-.07,0-.34.06c-.46,0-.14-.41.21-.77l.14-.15s0,0,0,0a9.86,9.86,0,0,0,.91-1.1A5,5,0,0,0,239,76.3c0-1.21-.68-1.81-2-1.81a4.15,4.15,0,0,0-2.41,1c0,.08,0,.08,0,.12a45.22,45.22,0,0,1-8,5.22c-.24.36-.4.56-.4.72s.28.2.72.2a18.25,18.25,0,0,0,2.53-1.28.86.86,0,0,0-.08.44,9.59,9.59,0,0,0,1.44,1.29,4,4,0,0,0,2.37.6,16.78,16.78,0,0,0,9-2.73c.68-.44,2.57-1.93,5.7-4.5a.74.74,0,0,0,.16-.44c0-.2-.08-.24-.16-.24M232.71,81a4.7,4.7,0,0,1-2-.7c-.55-.36-.05-.78.4-1.12,1.23-.91,2.61-2,4.13-3.32a2,2,0,0,1,.76-.08c.68,0,1.05.32,1.05,1a4.42,4.42,0,0,1-1.25,2.61,4,4,0,0,1-3.13,1.6"/><path class="cls-1" d="M229.59,73a4.35,4.35,0,0,0,2-1.09c.95-.7,2.15-1.92,2.21-2.94h0a4,4,0,0,0,.09-.82c0-.52-.4-.76-1.08-.76-1.69-.27-1.55,2.28-1.84,3a3.19,3.19,0,0,1-1.06,1.39c-.52.4-.67.79-.59,1a.25.25,0,0,0,.24.16"/><polygon class="cls-1" points="7.63 44.66 7.63 4.47 0 4.47 0 0 20.51 0 20.51 4.47 12.88 4.47 12.88 44.66 7.63 44.66"/><path class="cls-1" d="M41.93,44.66,34.54,23.83v-3.2h6.81V4.29H31V44.66H25.69V0H43.24c2.32,0,3.35,1.06,3.35,3.43V20.27c0,2.39-1.12,2.87-1.49,3a12.82,12.82,0,0,1-4.16.38H39.75l7.64,21Z"/><path class="cls-1" d="M57,44.66c-2.34,0-3.38-1-3.38-3.4V0H58.9V40.38h11V0h5.26V41.26c0,2.36-1.06,3.4-3.43,3.4Z"/><polygon class="cls-1" points="82.38 44.66 82.38 0 99.75 0 99.75 4.47 87.64 4.47 87.64 19.66 98.06 19.66 98.06 24.01 87.64 24.01 87.64 40.2 99.93 40.2 99.93 44.66 82.38 44.66"/><polygon class="cls-1" points="118.81 44.66 118.81 0 136.07 0 136.07 4.47 124.08 4.47 124.08 19.83 134.32 19.83 134.32 24.18 124.08 24.18 124.08 44.66 118.81 44.66"/><rect class="cls-1" x="141.78" width="5.27" height="44.66"/><polygon class="cls-1" points="159.99 44.66 159.99 4.47 152.35 4.47 152.35 0 172.86 0 172.86 4.47 165.22 4.47 165.22 44.66 159.99 44.66"/><polygon class="cls-1" points="183.64 44.66 183.64 4.47 176 4.47 176 0 196.51 0 196.51 4.47 188.88 4.47 188.88 44.66 183.64 44.66"/><polygon class="cls-1" points="201.69 44.66 201.69 0 219.07 0 219.07 4.47 206.96 4.47 206.96 19.66 217.38 19.66 217.38 24.01 206.96 24.01 206.96 40.2 219.24 40.2 219.24 44.66 201.69 44.66"/><path class="cls-1" d="M225.64,44.67V0h13.29a8.11,8.11,0,0,1,6,2.12A7.67,7.67,0,0,1,247.07,8v28.8a7.6,7.6,0,0,1-2.17,5.81,8.21,8.21,0,0,1-6,2.1Zm5.27-4.29h5.8c3.26,0,5.06-1.7,5.06-4.77V9c0-3-1.73-4.71-4.88-4.71h-6Z"/><path class="cls-1" d="M20.5,68.5a5.58,5.58,0,0,0-2-1.81,6,6,0,0,0-3-.67,6.45,6.45,0,0,0-1.33.14,5.31,5.31,0,0,0-1.29.47,7.27,7.27,0,0,0-1.33.86,13,13,0,0,0-1.45,1.33V55.47a.41.41,0,0,0-.05-.19.42.42,0,0,0-.17-.15A1,1,0,0,0,9.63,55a3.74,3.74,0,0,0-.52,0,3.43,3.43,0,0,0-.5,0,1.1,1.1,0,0,0-.33.09.36.36,0,0,0-.17.15.41.41,0,0,0,0,.19V82.59a.46.46,0,0,0,0,.21.28.28,0,0,0,.16.14,1.08,1.08,0,0,0,.3.08,2.81,2.81,0,0,0,.45,0,2.68,2.68,0,0,0,.44,0,1.19,1.19,0,0,0,.3-.08.3.3,0,0,0,.17-.14.37.37,0,0,0,.06-.21V80.53c.48.48.93.89,1.34,1.23a9.06,9.06,0,0,0,1.22.85,4.9,4.9,0,0,0,1.23.48,5.78,5.78,0,0,0,1.36.15,6.67,6.67,0,0,0,2.93-.61,5.91,5.91,0,0,0,2.15-1.76,8.09,8.09,0,0,0,1.31-2.77,15.25,15.25,0,0,0,.08-6.93A7.84,7.84,0,0,0,20.5,68.5Zm-1,8.67a7.14,7.14,0,0,1-.79,2.15,4.54,4.54,0,0,1-1.41,1.54,3.6,3.6,0,0,1-2.07.59,4.42,4.42,0,0,1-2.55-.86,13.3,13.3,0,0,1-2.54-2.45V71.21a15.84,15.84,0,0,1,1.44-1.59,8.36,8.36,0,0,1,1.31-1.05A4.76,4.76,0,0,1,14.15,68a4.24,4.24,0,0,1,1.22-.18,3.62,3.62,0,0,1,2.11.59A4.39,4.39,0,0,1,18.84,70a7.24,7.24,0,0,1,.72,2.22,15.49,15.49,0,0,1,.21,2.58A12.17,12.17,0,0,1,19.52,77.17Z"/><path class="cls-1" d="M38.41,66.25a2.92,2.92,0,0,0-.56,0,5.21,5.21,0,0,0-.6,0,1.23,1.23,0,0,0-.39.1.58.58,0,0,0-.24.33l-4.89,13.9h-.07l-5-13.9a1,1,0,0,0-.11-.21.38.38,0,0,0-.2-.14,1.38,1.38,0,0,0-.36-.08,4.82,4.82,0,0,0-.61,0,4.47,4.47,0,0,0-.59,0,.66.66,0,0,0-.32.11.33.33,0,0,0-.1.24,1.28,1.28,0,0,0,.09.4l5.79,15.53a.71.71,0,0,0,.14.25.53.53,0,0,0,.25.17l-2.25,5.65a.76.76,0,0,0-.08.36.42.42,0,0,0,.14.25.63.63,0,0,0,.32.13,3.89,3.89,0,0,0,.53,0,2.25,2.25,0,0,0,.9-.13.8.8,0,0,0,.37-.32l2.21-6,6-16a1.13,1.13,0,0,0,.09-.38.3.3,0,0,0-.11-.24A.63.63,0,0,0,38.41,66.25Z"/><path class="cls-1" d="M94.82,52.38c-2.17.08-4.77,1.28-7.95,3.81-1.39,1.19-4,3.62-7.77,7.26-1.76,1.69-2.26.45-1.79-.4h0c1.19-2.18,1.79-3.7,1.79-4.53a2.41,2.41,0,0,0-.76-1.85A2.62,2.62,0,0,0,76.44,56a10.36,10.36,0,0,0-5.13,1.76A68.39,68.39,0,0,0,64,63.41h0c-1,.85-1.54,0-1.05-.79s.77-1.39,1.06-2c2.11-4,1.74-6.62,1-8.25a4.21,4.21,0,0,0-.7-1.12l0,0h0a6.29,6.29,0,0,0-.71-.65,7.51,7.51,0,0,0-4.74-1.48,14.2,14.2,0,0,0-7.42,2.08A23.07,23.07,0,0,0,46,55.55l-3.57,4.17.44.28c1-1,1.89-2,2.81-3a27.74,27.74,0,0,1,4.9-4c.34-.2.68-.38,1-.55,1.73-.74,7-2.53,9.68.4.83,1.1,2.73,3.5-.31,9.43-.07.14-.14.28-.22.42l0,0c-.37.69-.79,1.42-1.25,2.18a92.93,92.93,0,0,1-7.3,10.31c-1.16,1.41-2.33,2.73-3.45,4.09S47.06,81.55,47.06,82c.09.23.09.32.17.32.52-.09,2.6-2.29,6.3-6.71A96,96,0,0,1,65.24,63.78c1.7-1.44,3.22-2.61,4.55-3.54a14.15,14.15,0,0,1,4.3-2.05c1.5-.09,2.88.56,2.21,2.65a48.07,48.07,0,0,1-3.71,6.71c-.4.68-2.25,3-5.62,7.26-3,3.82-4.53,5.86-4.53,6.18a1.51,1.51,0,0,0,0,.48v.32c.07.09.24.09.4.09.36-.09,1.72-1.53,4.13-4.38,2.73-3.29,4.29-5.06,4.53-5.29C75.74,68.08,79.91,64,84.14,59.9A38,38,0,0,1,89,56.2l.47-.25.06,0c1.45-.73,3-1.23,4-.94s1.25,1.62,1.06,2.86q-.23,1.06-.66,2.43h0c-.2.62-.43,1.3-.69,2-.76,2-1.49,3.88-2.18,5.75h0v0c-.27.71-.53,1.43-.78,2.14-.12.33-.22.66-.33,1-.63,1.74-1.27,3.49-1.71,5.06-.89,2.93-1.29,5.16,0,5.92s3.53-.7,3.37-2.06c-.07-.6-.3-1.36-.47-2.23a14.8,14.8,0,0,1,.3-4c.52-2.17,1.34-4.94,2.48-8.33C96,59.24,97,55.79,97,55.23,97,53.34,96.27,52.38,94.82,52.38Z"/><path class="cls-1" d="M99.8,79.35c-1.21,0-1.77.48-1.77,1.4s.6,1.41,1.73,1.41,1.88-.49,1.88-1.41a1.16,1.16,0,0,0-.56-1A2.07,2.07,0,0,0,99.8,79.35Z"/><path class="cls-1" d="M140.26,72.66c-1.23-.75-1-1.22.41-2h0q4.41-2.45,8.66-5.22h0c6.29-3.5,17.86-13.67,18.52-14.41s-.12-1.35-.87-1.83a2,2,0,0,0-3.18.55,40.38,40.38,0,0,1-4.18,4.9c-2.38,2.25-5.08,4.69-6.37,5.73-1.11.85-2.26,1.72-3.47,2.6a111.48,111.48,0,0,1-10.23,6.77c-1.76,1-2.83.8-3.55.4-1.23-.7-2.24-1.26-3-1.69h0c-.9-.5-.62-1.13,0-1.9,4.08-5.08,7.11-8.94,9.26-11.6l-.44-.93L132,66a2.24,2.24,0,0,1-2.54,1l-.53-.17h0c-1.92-.62-3.3-1-4.13-1.2a16.82,16.82,0,0,0-4.5-.6,15.79,15.79,0,0,0-8.06,1.89c-2.17,1.28-3.25,2.8-3.25,4.65a5.05,5.05,0,0,0,1.88,4c1.57,1.33,3.73,1.89,6.59,1.89a33.06,33.06,0,0,0,3.72-.25c.87-.1,2.13.21,1.23,1.26a76,76,0,0,1-6.08,6.37A55.65,55.65,0,0,1,112,88.5c-1,.8-1.45,1.24-1.45,1.4a.82.82,0,0,0,.12.52,75.49,75.49,0,0,0,7.51-6.22c1.24-1.18,3.06-3.18,5.51-6a10.59,10.59,0,0,1,4.47-2.38,38.27,38.27,0,0,0,5.76-2.06h0a4,4,0,0,1,4,0h0c.87.56,1.89,1.17,3,1.83h0l7.37,4.44,7,4.55,3.37-1.23,1-.32Q146.56,76.51,140.26,72.66Zm-16.67,2.68-2.57.22c-6.68.34-9.21-1.74-10.13-3.31a3,3,0,0,1-.29-2.4,4.54,4.54,0,0,1,2-2.1A10.06,10.06,0,0,1,118,66.34a27.23,27.23,0,0,1,10.2,2.26c.66.28,1.28.89.62,1.73l-2.55,3.28A5.66,5.66,0,0,1,123.59,75.34Zm10.15-2.74a63.26,63.26,0,0,1-6,2c-.61-.07-.45-.78-.09-1.24.77-1,1.46-1.85,2.08-2.66a1.76,1.76,0,0,1,2.33-.35l1.52.87C134.67,71.83,134.39,72.36,133.74,72.6Z"/><path class="cls-1" d="M223.68,75.73c-.36,0-1.6,1-3.81,2.77s-3.94,2.77-5,2.77c-1.4,0-2.12-.44-2.12-1.32a5.7,5.7,0,0,1,1.44-3.17c1-1.12,1.4-1.69,1.4-1.57,0-.28-.24-.44-.72-.4a3.79,3.79,0,0,0-1.11.91q-3.33,2.5-3.86,2.82c-2.37,1.61-4.06,2.41-5.1,2.41-1.4,0-2-.56-2-1.48A4.69,4.69,0,0,1,204,76.74a18.9,18.9,0,0,0,1.24-1.49c-.08-.32-.16-.52-.32-.52-1.29,0-3.92,1.31-7.94,4h0c-.94.62-.89.11-.12-.86a8,8,0,0,0,1.29-2,1,1,0,0,0-.66-.93h0a1.43,1.43,0,0,0-1.33.07l-.11,0c-2.85,2.17-4.49,3.37-4.89,3.61C188.77,80.15,187.08,81,186,81c-1.41,0-2-.56-2-1.48a4.63,4.63,0,0,1,1.21-2.73,18.9,18.9,0,0,0,1.24-1.49c-.08-.32-.16-.52-.32-.52-1.23,0-3.67,1.18-7.35,3.57-1.16.65-1.4.38-.91-.24l.19-.24a8,8,0,0,0,1.29-2A1,1,0,0,0,179,75h0a1.7,1.7,0,0,0-1.62-.1l-.07,0-.18.13-.38.29c-2.71,2-4.29,3.18-4.78,3.51-2.77,1.81-4.77,2.69-6.22,2.69a2.68,2.68,0,0,1-1.48-.44,2,2,0,0,1-.62-.67c-.33-.65.18-1.08.77-1.44l.42-.25h0l.49-.31h0l.06,0,.29-.19c1-.65,2.62-1.67,2.94-2.66h0a1.47,1.47,0,0,0,.17-.69,1.24,1.24,0,0,0-.44-.8,1.28,1.28,0,0,0-.92-.4c-1.08,0-2.25.8-3.7,2.29s-2,2.92-2,4.13c0,1.93,1,2.85,2.81,2.85a13.75,13.75,0,0,0,7.26-2.77c.44-.3,1-.71,1.7-1.24h0l.06-.05a12.8,12.8,0,0,1,1.89-1.26c.26-.07.47-.07.44.16a.43.43,0,0,0,0,0,1.71,1.71,0,0,1-.24.47l-.87,1.27a7.36,7.36,0,0,0-1.48,2.69c0,.08.08.19.24.28a1.34,1.34,0,0,0,.32.16,15.26,15.26,0,0,0,2.57-1.57c1.62-1.09,3.22-2,4.75-2.95.69-.39,1.4-.45,1.3.56h0a7.06,7.06,0,0,0-.11,1.18c0,1.64.76,2.41,2.28,2.41,1.81,0,3.9-.85,6.3-2.49.67-.43,1.63-1.16,2.91-2.18.65-.52,1.3-.44.33,1l-.63.93A7.36,7.36,0,0,0,192,82.2c0,.08.08.19.24.28a1.34,1.34,0,0,0,.32.16,15.26,15.26,0,0,0,2.57-1.57c1.69-1.13,3.35-2.13,4.94-3.06,1-.57,1.21-.15,1.11.67h0a7.06,7.06,0,0,0-.11,1.18c0,1.64.76,2.41,2.29,2.41,1.8,0,3.89-.85,6.3-2.49.3-.2.66-.46,1.09-.77.71-.54,1.16-.59,1,.23h0a4.93,4.93,0,0,0-.23,1.41c0,1.32.6,2,1.89,2a6.68,6.68,0,0,0,2.69-.74h0c.49-.24,1.24,0,.49.87h0L205.3,95.2c-1.52,1.65-2.25,3.09-2.25,4.33a12.21,12.21,0,0,0,.21,1.49,2.23,2.23,0,0,0,2.63-.79c.57-.54-.52-1.94,0-3.19a15.87,15.87,0,0,1,2.33-3.7c2.11-2.6,4.38-5.22,6.87-7.81,1.13-1.17,3.21-3.33,6.43-6.51,1.72-1.76,2.6-2.76,2.6-3S223.92,75.73,223.68,75.73Zm-59.87,1.51a5.19,5.19,0,0,1,.84-1.07,7.34,7.34,0,0,1,.77-.74c1.21-.87,1.45.22,1.12.75a8.63,8.63,0,0,1-2.29,1.8l-.17.07C163.35,78.32,163.65,77.59,163.81,77.24Z"/><path class="cls-1" d="M247.84,74.85a.78.78,0,0,0-.28,0,57.81,57.81,0,0,1-5.42,3.81,16.69,16.69,0,0,1-5.26,2.42l-.07,0-.34.06c-.46,0-.14-.41.21-.77l.14-.15s0,0,0,0a9.86,9.86,0,0,0,.91-1.1A5,5,0,0,0,239,76.3c0-1.21-.68-1.81-2-1.81a4.15,4.15,0,0,0-2.41,1c0,.08,0,.08,0,.12a45.22,45.22,0,0,1-8,5.22c-.24.36-.4.56-.4.72s.28.2.72.2a18.25,18.25,0,0,0,2.53-1.28.86.86,0,0,0-.08.44,9.59,9.59,0,0,0,1.44,1.29,4,4,0,0,0,2.37.6,16.78,16.78,0,0,0,9-2.73c.68-.44,2.57-1.93,5.7-4.5a.74.74,0,0,0,.16-.44C248,74.89,247.92,74.85,247.84,74.85ZM232.71,81a4.7,4.7,0,0,1-2-.7c-.55-.36-.05-.78.4-1.12,1.23-.91,2.61-2,4.13-3.32a2,2,0,0,1,.76-.08c.68,0,1.05.32,1.05,1a4.42,4.42,0,0,1-1.25,2.61A4,4,0,0,1,232.71,81Z"/><path class="cls-1" d="M229.59,73a4.35,4.35,0,0,0,2-1.09c.95-.7,2.15-1.92,2.21-2.94h0a4,4,0,0,0,.09-.82c0-.52-.4-.76-1.08-.76-1.69-.27-1.55,2.28-1.84,3a3.19,3.19,0,0,1-1.06,1.39c-.52.4-.67.79-.59,1A.25.25,0,0,0,229.59,73Z"/></g></g></svg>