<svg width="12" height="10" viewBox="0 0 12 10" fill="none" xmlns="http://www.w3.org/2000/svg">
<path d="M8.24586 0.684132L11.7814 4.21967C12.0743 4.51256 12.0743 4.98743 11.7814 5.28033L8.24586 8.81586C7.95297 9.10875 7.4781 9.10875 7.1852 8.81586C6.89231 8.52297 6.89231 8.04809 7.1852 7.7552L9.44 5.49946L0.75 5.5C0.370304 5.5 0.0565091 5.21784 0.00684667 4.85177L0 4.75C0 4.33578 0.335786 4 0.75 4L9.44 3.99946L7.1852 1.74479C6.89231 1.4519 6.89231 0.977025 7.1852 0.684132C7.4781 0.391239 7.95297 0.391239 8.24586 0.684132Z" fill="#253C4F"/>
</svg>
